<svg width="835" height="69" viewBox="0 0 835 69" fill="none" xmlns="http://www.w3.org/2000/svg">
<g filter="url(#filter0_d_1_25)">
<mask id="path-1-outside-1_1_25" maskUnits="userSpaceOnUse" x="3" y="-1" width="829" height="63" fill="black">
<rect fill="white" x="3" y="-1" width="829" height="63"/>
<path d="M11.16 13.144V47H4.76V2.2H10.584L33.752 36.056H33.88V2.2H40.28V47H34.456L11.288 13.144H11.16ZM76.4625 41.432V47H58.6065L51.1825 42.712V18.968L58.6065 14.68H69.0385L76.4625 18.968V33.176H57.3905V41.432H76.4625ZM57.3905 20.248V27.608H70.2545V20.248H57.3905ZM112.731 47L105.819 22.552H105.691L98.8425 47H91.4825L83.4825 15H89.2425L95.3225 40.024H95.4505L102.491 15H109.083L116.123 40.024H116.251L122.331 15H128.091L120.091 47H112.731ZM132.56 20.568V15H138.448V9.624L144.656 6.04V15H152.336V20.568H144.656V41.432H152.336V47H145.872L138.448 42.712V20.568H132.56ZM188.507 43.032L181.084 47.32H168.732L161.308 43.032V18.968L168.732 14.68H181.084L188.507 18.968V43.032ZM167.516 20.248V41.752H182.3V20.248H167.516ZM225.945 18.968V47H219.737V20.248H204.953V47H198.745V14.68H203.417L204.953 17.304L209.497 14.68H218.521L225.945 18.968ZM253.448 23.32V6.168L260.872 1.88H275.784L283.208 6.168V12.76H276.808V7.64H259.848V21.208H275.784L283.208 25.496V43.032L275.784 47.32H260.232L252.808 43.032V36.44H259.208V41.56H276.808V27.608H260.872L253.448 23.32ZM300.266 20.568V41.432H318.058V47H301.482L294.058 42.712V19.288L301.482 15H318.058V20.568H300.266ZM333.203 47H326.995V0.279999H333.203V17.304L337.747 14.68H347.411L354.835 18.968V47H348.627V20.248H333.203V47ZM392.257 43.032L384.834 47.32H372.482L365.058 43.032V18.968L372.482 14.68H384.834L392.257 18.968V43.032ZM371.266 20.248V41.752H386.05V20.248H371.266ZM429.695 43.032L422.271 47.32H409.919L402.495 43.032V18.968L409.919 14.68H422.271L429.695 18.968V43.032ZM408.703 20.248V41.752H423.487V20.248H408.703ZM447.357 47L439.933 42.712V0.279999H446.141V41.432H453.821V47H447.357ZM502.79 35.8H509.19V43.032L501.766 47.32H484.934L477.51 43.032V6.168L484.934 1.88H501.766L509.19 6.168V13.4H502.79V7.64H483.91V41.56H502.79V35.8ZM546.632 43.032L539.209 47.32H526.857L519.433 43.032V18.968L526.857 14.68H539.209L546.632 18.968V43.032ZM525.641 20.248V41.752H540.425V20.248H525.641ZM564.294 14.68H573.958L578.502 17.304V0.279999H584.71V47.32H580.038L578.502 44.696L573.958 47.32H564.294L556.87 43.032V18.968L564.294 14.68ZM578.502 41.752V20.248H563.078V41.752H578.502ZM601.141 15V47H594.933V15H601.141ZM594.613 7.128V0.279999H601.461V7.128H594.613ZM638.57 18.968V47H632.362V20.248H617.578V47H611.37V14.68H616.042L617.578 17.304L622.122 14.68H631.146L638.57 18.968ZM655.016 47L648.808 43.416V37.656L653.352 35.032L648.808 32.408V19.288L656.232 15H676.648V17.176L670.824 20.568L674.728 22.872V31.704L667.304 35.992H655.016V41.432H669.224L676.648 45.72V55.832L669.224 60.12H654.952L647.528 55.832V51.864L653.736 48.28V54.68H670.44V47H655.016ZM655.016 20.44V30.552H668.52V20.44H655.016ZM728.165 35.8H734.565V43.032L727.141 47.32H710.309L702.885 43.032V6.168L710.309 1.88H727.141L734.565 6.168V13.4H728.165V7.64H709.285V41.56H728.165V35.8ZM752.232 47L744.808 42.712V0.279999H751.016V41.432H758.696V47H752.232ZM765.12 43.032V15H771.328V41.752H786.112V15H792.32V47.32H787.648L786.112 44.696L781.568 47.32H772.544L765.12 43.032ZM813.31 14.68H822.974L830.398 18.968V43.032L822.974 47.32H813.31L808.766 44.696L804.222 47.32H802.558V0.279999H808.766V17.304L813.31 14.68ZM808.766 20.248V41.752H824.19V20.248H808.766Z"/>
</mask>
<path d="M11.16 13.144V47H4.76V2.2H10.584L33.752 36.056H33.88V2.2H40.28V47H34.456L11.288 13.144H11.16ZM76.4625 41.432V47H58.6065L51.1825 42.712V18.968L58.6065 14.68H69.0385L76.4625 18.968V33.176H57.3905V41.432H76.4625ZM57.3905 20.248V27.608H70.2545V20.248H57.3905ZM112.731 47L105.819 22.552H105.691L98.8425 47H91.4825L83.4825 15H89.2425L95.3225 40.024H95.4505L102.491 15H109.083L116.123 40.024H116.251L122.331 15H128.091L120.091 47H112.731ZM132.56 20.568V15H138.448V9.624L144.656 6.04V15H152.336V20.568H144.656V41.432H152.336V47H145.872L138.448 42.712V20.568H132.56ZM188.507 43.032L181.084 47.32H168.732L161.308 43.032V18.968L168.732 14.68H181.084L188.507 18.968V43.032ZM167.516 20.248V41.752H182.3V20.248H167.516ZM225.945 18.968V47H219.737V20.248H204.953V47H198.745V14.68H203.417L204.953 17.304L209.497 14.68H218.521L225.945 18.968ZM253.448 23.32V6.168L260.872 1.88H275.784L283.208 6.168V12.76H276.808V7.64H259.848V21.208H275.784L283.208 25.496V43.032L275.784 47.32H260.232L252.808 43.032V36.44H259.208V41.56H276.808V27.608H260.872L253.448 23.32ZM300.266 20.568V41.432H318.058V47H301.482L294.058 42.712V19.288L301.482 15H318.058V20.568H300.266ZM333.203 47H326.995V0.279999H333.203V17.304L337.747 14.68H347.411L354.835 18.968V47H348.627V20.248H333.203V47ZM392.257 43.032L384.834 47.32H372.482L365.058 43.032V18.968L372.482 14.68H384.834L392.257 18.968V43.032ZM371.266 20.248V41.752H386.05V20.248H371.266ZM429.695 43.032L422.271 47.32H409.919L402.495 43.032V18.968L409.919 14.68H422.271L429.695 18.968V43.032ZM408.703 20.248V41.752H423.487V20.248H408.703ZM447.357 47L439.933 42.712V0.279999H446.141V41.432H453.821V47H447.357ZM502.79 35.8H509.19V43.032L501.766 47.32H484.934L477.51 43.032V6.168L484.934 1.88H501.766L509.19 6.168V13.4H502.79V7.64H483.91V41.56H502.79V35.8ZM546.632 43.032L539.209 47.32H526.857L519.433 43.032V18.968L526.857 14.68H539.209L546.632 18.968V43.032ZM525.641 20.248V41.752H540.425V20.248H525.641ZM564.294 14.68H573.958L578.502 17.304V0.279999H584.71V47.32H580.038L578.502 44.696L573.958 47.32H564.294L556.87 43.032V18.968L564.294 14.68ZM578.502 41.752V20.248H563.078V41.752H578.502ZM601.141 15V47H594.933V15H601.141ZM594.613 7.128V0.279999H601.461V7.128H594.613ZM638.57 18.968V47H632.362V20.248H617.578V47H611.37V14.68H616.042L617.578 17.304L622.122 14.68H631.146L638.57 18.968ZM655.016 47L648.808 43.416V37.656L653.352 35.032L648.808 32.408V19.288L656.232 15H676.648V17.176L670.824 20.568L674.728 22.872V31.704L667.304 35.992H655.016V41.432H669.224L676.648 45.72V55.832L669.224 60.12H654.952L647.528 55.832V51.864L653.736 48.28V54.68H670.44V47H655.016ZM655.016 20.44V30.552H668.52V20.44H655.016ZM728.165 35.8H734.565V43.032L727.141 47.32H710.309L702.885 43.032V6.168L710.309 1.88H727.141L734.565 6.168V13.4H728.165V7.64H709.285V41.56H728.165V35.8ZM752.232 47L744.808 42.712V0.279999H751.016V41.432H758.696V47H752.232ZM765.12 43.032V15H771.328V41.752H786.112V15H792.32V47.32H787.648L786.112 44.696L781.568 47.32H772.544L765.12 43.032ZM813.31 14.68H822.974L830.398 18.968V43.032L822.974 47.32H813.31L808.766 44.696L804.222 47.32H802.558V0.279999H808.766V17.304L813.31 14.68ZM808.766 20.248V41.752H824.19V20.248H808.766Z" fill="white"/>
<path d="M11.16 13.144V12.144H10.16V13.144H11.16ZM11.16 47V48H12.16V47H11.16ZM4.76 47H3.76V48H4.76V47ZM4.76 2.2V1.2H3.76V2.2H4.76ZM10.584 2.2L11.4093 1.63526L11.1114 1.2H10.584V2.2ZM33.752 36.056L32.9267 36.6207L33.2246 37.056H33.752V36.056ZM33.88 36.056V37.056H34.88V36.056H33.88ZM33.88 2.2V1.2H32.88V2.2H33.88ZM40.28 2.2H41.28V1.2H40.28V2.2ZM40.28 47V48H41.28V47H40.28ZM34.456 47L33.6307 47.5647L33.9286 48H34.456V47ZM11.288 13.144L12.1133 12.5793L11.8154 12.144H11.288V13.144ZM10.16 13.144V47H12.16V13.144H10.16ZM11.16 46H4.76V48H11.16V46ZM5.76 47V2.2H3.76V47H5.76ZM4.76 3.2H10.584V1.2H4.76V3.2ZM9.75873 2.76474L32.9267 36.6207L34.5773 35.4913L11.4093 1.63526L9.75873 2.76474ZM33.752 37.056H33.88V35.056H33.752V37.056ZM34.88 36.056V2.2H32.88V36.056H34.88ZM33.88 3.2H40.28V1.2H33.88V3.2ZM39.28 2.2V47H41.28V2.2H39.28ZM40.28 46H34.456V48H40.28V46ZM35.2813 46.4353L12.1133 12.5793L10.4627 13.7087L33.6307 47.5647L35.2813 46.4353ZM11.288 12.144H11.16V14.144H11.288V12.144ZM76.4625 41.432H77.4625V40.432H76.4625V41.432ZM76.4625 47V48H77.4625V47H76.4625ZM58.6065 47L58.1063 47.8659L58.3385 48H58.6065V47ZM51.1825 42.712H50.1825V43.2892L50.6823 43.5779L51.1825 42.712ZM51.1825 18.968L50.6823 18.1021L50.1825 18.3908V18.968H51.1825ZM58.6065 14.68V13.68H58.3385L58.1063 13.8141L58.6065 14.68ZM69.0385 14.68L69.5387 13.8141L69.3065 13.68H69.0385V14.68ZM76.4625 18.968H77.4625V18.3908L76.9627 18.1021L76.4625 18.968ZM76.4625 33.176V34.176H77.4625V33.176H76.4625ZM57.3905 33.176V32.176H56.3905V33.176H57.3905ZM57.3905 41.432H56.3905V42.432H57.3905V41.432ZM57.3905 20.248V19.248H56.3905V20.248H57.3905ZM57.3905 27.608H56.3905V28.608H57.3905V27.608ZM70.2545 27.608V28.608H71.2545V27.608H70.2545ZM70.2545 20.248H71.2545V19.248H70.2545V20.248ZM75.4625 41.432V47H77.4625V41.432H75.4625ZM76.4625 46H58.6065V48H76.4625V46ZM59.1067 46.1341L51.6827 41.8461L50.6823 43.5779L58.1063 47.8659L59.1067 46.1341ZM52.1825 42.712V18.968H50.1825V42.712H52.1825ZM51.6827 19.8339L59.1067 15.5459L58.1063 13.8141L50.6823 18.1021L51.6827 19.8339ZM58.6065 15.68H69.0385V13.68H58.6065V15.68ZM68.5383 15.5459L75.9623 19.8339L76.9627 18.1021L69.5387 13.8141L68.5383 15.5459ZM75.4625 18.968V33.176H77.4625V18.968H75.4625ZM76.4625 32.176H57.3905V34.176H76.4625V32.176ZM56.3905 33.176V41.432H58.3905V33.176H56.3905ZM57.3905 42.432H76.4625V40.432H57.3905V42.432ZM56.3905 20.248V27.608H58.3905V20.248H56.3905ZM57.3905 28.608H70.2545V26.608H57.3905V28.608ZM71.2545 27.608V20.248H69.2545V27.608H71.2545ZM70.2545 19.248H57.3905V21.248H70.2545V19.248ZM112.73 47L111.768 47.2721L111.974 48H112.73V47ZM105.818 22.552L106.781 22.2799L106.575 21.552H105.818V22.552ZM105.69 22.552V21.552H104.932L104.728 22.2823L105.69 22.552ZM98.8425 47V48H99.6009L99.8054 47.2697L98.8425 47ZM91.4825 47L90.5124 47.2425L90.7017 48H91.4825V47ZM83.4825 15V14H82.2017L82.5124 15.2425L83.4825 15ZM89.2425 15L90.2142 14.7639L90.0286 14H89.2425V15ZM95.3225 40.024L94.3508 40.2601L94.5364 41.024H95.3225V40.024ZM95.4505 40.024V41.024H96.208L96.4131 40.2948L95.4505 40.024ZM102.491 15V14H101.733L101.528 14.7292L102.491 15ZM109.083 15L110.045 14.7292L109.84 14H109.083V15ZM116.122 40.024L115.16 40.2948L115.365 41.024H116.122V40.024ZM116.251 40.024V41.024H117.037L117.222 40.2601L116.251 40.024ZM122.331 15V14H121.544L121.359 14.7639L122.331 15ZM128.09 15L129.061 15.2425L129.371 14H128.09V15ZM120.09 47V48H120.871L121.061 47.2425L120.09 47ZM113.693 46.7279L106.781 22.2799L104.856 22.8241L111.768 47.2721L113.693 46.7279ZM105.818 21.552H105.69V23.552H105.818V21.552ZM104.728 22.2823L97.8796 46.7303L99.8054 47.2697L106.653 22.8217L104.728 22.2823ZM98.8425 46H91.4825V48H98.8425V46ZM92.4526 46.7575L84.4526 14.7575L82.5124 15.2425L90.5124 47.2425L92.4526 46.7575ZM83.4825 16H89.2425V14H83.4825V16ZM88.2708 15.2361L94.3508 40.2601L96.2942 39.7879L90.2142 14.7639L88.2708 15.2361ZM95.3225 41.024H95.4505V39.024H95.3225V41.024ZM96.4131 40.2948L103.453 15.2708L101.528 14.7292L94.4879 39.7532L96.4131 40.2948ZM102.491 16H109.083V14H102.491V16ZM108.12 15.2708L115.16 40.2948L117.085 39.7532L110.045 14.7292L108.12 15.2708ZM116.122 41.024H116.251V39.024H116.122V41.024ZM117.222 40.2601L123.302 15.2361L121.359 14.7639L115.279 39.7879L117.222 40.2601ZM122.331 16H128.09V14H122.331V16ZM127.12 14.7575L119.12 46.7575L121.061 47.2425L129.061 15.2425L127.12 14.7575ZM120.09 46H112.73V48H120.09V46ZM132.56 20.568H131.56V21.568H132.56V20.568ZM132.56 15V14H131.56V15H132.56ZM138.448 15V16H139.448V15H138.448ZM138.448 9.624L137.948 8.75796L137.448 9.04663V9.624H138.448ZM144.656 6.04H145.656V4.30799L144.156 5.17396L144.656 6.04ZM144.656 15H143.656V16H144.656V15ZM152.336 15H153.336V14H152.336V15ZM152.336 20.568V21.568H153.336V20.568H152.336ZM144.656 20.568V19.568H143.656V20.568H144.656ZM144.656 41.432H143.656V42.432H144.656V41.432ZM152.336 41.432H153.336V40.432H152.336V41.432ZM152.336 47V48H153.336V47H152.336ZM145.872 47L145.372 47.8659L145.604 48H145.872V47ZM138.448 42.712H137.448V43.2892L137.948 43.5779L138.448 42.712ZM138.448 20.568H139.448V19.568H138.448V20.568ZM133.56 20.568V15H131.56V20.568H133.56ZM132.56 16H138.448V14H132.56V16ZM139.448 15V9.624H137.448V15H139.448ZM138.948 10.49L145.156 6.90603L144.156 5.17396L137.948 8.75796L138.948 10.49ZM143.656 6.04V15H145.656V6.04H143.656ZM144.656 16H152.336V14H144.656V16ZM151.336 15V20.568H153.336V15H151.336ZM152.336 19.568H144.656V21.568H152.336V19.568ZM143.656 20.568V41.432H145.656V20.568H143.656ZM144.656 42.432H152.336V40.432H144.656V42.432ZM151.336 41.432V47H153.336V41.432H151.336ZM152.336 46H145.872V48H152.336V46ZM146.372 46.1341L138.948 41.8461L137.948 43.5779L145.372 47.8659L146.372 46.1341ZM139.448 42.712V20.568H137.448V42.712H139.448ZM138.448 19.568H132.56V21.568H138.448V19.568ZM188.508 43.032L189.008 43.8979L189.508 43.6092V43.032H188.508ZM181.083 47.32V48.32H181.352L181.584 48.1859L181.083 47.32ZM168.732 47.32L168.231 48.1859L168.463 48.32H168.732V47.32ZM161.307 43.032H160.307V43.6092L160.807 43.8979L161.307 43.032ZM161.307 18.968L160.807 18.1021L160.307 18.3908V18.968H161.307ZM168.732 14.68V13.68H168.463L168.231 13.8141L168.732 14.68ZM181.083 14.68L181.584 13.8141L181.352 13.68H181.083V14.68ZM188.508 18.968H189.508V18.3908L189.008 18.1021L188.508 18.968ZM167.516 20.248V19.248H166.516V20.248H167.516ZM167.516 41.752H166.516V42.752H167.516V41.752ZM182.299 41.752V42.752H183.299V41.752H182.299ZM182.299 20.248H183.299V19.248H182.299V20.248ZM188.007 42.1661L180.583 46.4541L181.584 48.1859L189.008 43.8979L188.007 42.1661ZM181.083 46.32H168.732V48.32H181.083V46.32ZM169.232 46.4541L161.808 42.1661L160.807 43.8979L168.231 48.1859L169.232 46.4541ZM162.307 43.032V18.968H160.307V43.032H162.307ZM161.808 19.8339L169.232 15.5459L168.231 13.8141L160.807 18.1021L161.808 19.8339ZM168.732 15.68H181.083V13.68H168.732V15.68ZM180.583 15.5459L188.007 19.8339L189.008 18.1021L181.584 13.8141L180.583 15.5459ZM187.508 18.968V43.032H189.508V18.968H187.508ZM166.516 20.248V41.752H168.516V20.248H166.516ZM167.516 42.752H182.299V40.752H167.516V42.752ZM183.299 41.752V20.248H181.299V41.752H183.299ZM182.299 19.248H167.516V21.248H182.299V19.248ZM225.945 18.968H226.945V18.3908L226.445 18.1021L225.945 18.968ZM225.945 47V48H226.945V47H225.945ZM219.737 47H218.737V48H219.737V47ZM219.737 20.248H220.737V19.248H219.737V20.248ZM204.953 20.248V19.248H203.953V20.248H204.953ZM204.953 47V48H205.953V47H204.953ZM198.745 47H197.745V48H198.745V47ZM198.745 14.68V13.68H197.745V14.68H198.745ZM203.417 14.68L204.28 14.1748L203.99 13.68H203.417V14.68ZM204.953 17.304L204.09 17.8092L204.592 18.6671L205.453 18.17L204.953 17.304ZM209.497 14.68V13.68H209.229L208.997 13.814L209.497 14.68ZM218.521 14.68L219.021 13.8141L218.789 13.68H218.521V14.68ZM224.945 18.968V47H226.945V18.968H224.945ZM225.945 46H219.737V48H225.945V46ZM220.737 47V20.248H218.737V47H220.737ZM219.737 19.248H204.953V21.248H219.737V19.248ZM203.953 20.248V47H205.953V20.248H203.953ZM204.953 46H198.745V48H204.953V46ZM199.745 47V14.68H197.745V47H199.745ZM198.745 15.68H203.417V13.68H198.745V15.68ZM202.554 15.1852L204.09 17.8092L205.816 16.7988L204.28 14.1748L202.554 15.1852ZM205.453 18.17L209.997 15.546L208.997 13.814L204.453 16.438L205.453 18.17ZM209.497 15.68H218.521V13.68H209.497V15.68ZM218.021 15.5459L225.445 19.8339L226.445 18.1021L219.021 13.8141L218.021 15.5459ZM253.447 23.32H252.447V23.8972L252.947 24.1859L253.447 23.32ZM253.447 6.168L252.947 5.30206L252.447 5.59077V6.168H253.447ZM260.871 1.88V0.879997H260.603L260.371 1.01406L260.871 1.88ZM275.784 1.88L276.284 1.01406L276.052 0.879997H275.784V1.88ZM283.207 6.168H284.207V5.59077L283.708 5.30206L283.207 6.168ZM283.207 12.76V13.76H284.207V12.76H283.207ZM276.807 12.76H275.807V13.76H276.807V12.76ZM276.807 7.64H277.807V6.64H276.807V7.64ZM259.848 7.64V6.64H258.848V7.64H259.848ZM259.848 21.208H258.848V22.208H259.848V21.208ZM275.784 21.208L276.284 20.3421L276.052 20.208H275.784V21.208ZM283.207 25.496H284.207V24.9188L283.708 24.6301L283.207 25.496ZM283.207 43.032L283.708 43.8979L284.207 43.6092V43.032H283.207ZM275.784 47.32V48.32H276.052L276.284 48.1859L275.784 47.32ZM260.232 47.32L259.731 48.1859L259.963 48.32H260.232V47.32ZM252.807 43.032H251.807V43.6092L252.307 43.8979L252.807 43.032ZM252.807 36.44V35.44H251.807V36.44H252.807ZM259.207 36.44H260.207V35.44H259.207V36.44ZM259.207 41.56H258.207V42.56H259.207V41.56ZM276.807 41.56V42.56H277.807V41.56H276.807ZM276.807 27.608H277.807V26.608H276.807V27.608ZM260.871 27.608L260.371 28.4739L260.603 28.608H260.871V27.608ZM254.447 23.32V6.168H252.447V23.32H254.447ZM253.948 7.03394L261.372 2.74593L260.371 1.01406L252.947 5.30206L253.948 7.03394ZM260.871 2.88H275.784V0.879997H260.871V2.88ZM275.283 2.74593L282.707 7.03394L283.708 5.30206L276.284 1.01406L275.283 2.74593ZM282.207 6.168V12.76H284.207V6.168H282.207ZM283.207 11.76H276.807V13.76H283.207V11.76ZM277.807 12.76V7.64H275.807V12.76H277.807ZM276.807 6.64H259.848V8.64H276.807V6.64ZM258.848 7.64V21.208H260.848V7.64H258.848ZM259.848 22.208H275.784V20.208H259.848V22.208ZM275.283 22.0739L282.707 26.3619L283.708 24.6301L276.284 20.3421L275.283 22.0739ZM282.207 25.496V43.032H284.207V25.496H282.207ZM282.707 42.1661L275.283 46.4541L276.284 48.1859L283.708 43.8979L282.707 42.1661ZM275.784 46.32H260.232V48.32H275.784V46.32ZM260.732 46.4541L253.308 42.1661L252.307 43.8979L259.731 48.1859L260.732 46.4541ZM253.807 43.032V36.44H251.807V43.032H253.807ZM252.807 37.44H259.207V35.44H252.807V37.44ZM258.207 36.44V41.56H260.207V36.44H258.207ZM259.207 42.56H276.807V40.56H259.207V42.56ZM277.807 41.56V27.608H275.807V41.56H277.807ZM276.807 26.608H260.871V28.608H276.807V26.608ZM261.372 26.7421L253.948 22.4541L252.947 24.1859L260.371 28.4739L261.372 26.7421ZM300.266 20.568V19.568H299.266V20.568H300.266ZM300.266 41.432H299.266V42.432H300.266V41.432ZM318.057 41.432H319.057V40.432H318.057V41.432ZM318.057 47V48H319.057V47H318.057ZM301.482 47L300.981 47.8659L301.213 48H301.482V47ZM294.057 42.712H293.057V43.2892L293.557 43.5779L294.057 42.712ZM294.057 19.288L293.557 18.4221L293.057 18.7108V19.288H294.057ZM301.482 15V14H301.213L300.981 14.1341L301.482 15ZM318.057 15H319.057V14H318.057V15ZM318.057 20.568V21.568H319.057V20.568H318.057ZM299.266 20.568V41.432H301.266V20.568H299.266ZM300.266 42.432H318.057V40.432H300.266V42.432ZM317.057 41.432V47H319.057V41.432H317.057ZM318.057 46H301.482V48H318.057V46ZM301.982 46.1341L294.558 41.8461L293.557 43.5779L300.981 47.8659L301.982 46.1341ZM295.057 42.712V19.288H293.057V42.712H295.057ZM294.558 20.1539L301.982 15.8659L300.981 14.1341L293.557 18.4221L294.558 20.1539ZM301.482 16H318.057V14H301.482V16ZM317.057 15V20.568H319.057V15H317.057ZM318.057 19.568H300.266V21.568H318.057V19.568ZM333.203 47V48H334.203V47H333.203ZM326.995 47H325.995V48H326.995V47ZM326.995 0.279999V-0.720001H325.995V0.279999H326.995ZM333.203 0.279999H334.203V-0.720001H333.203V0.279999ZM333.203 17.304H332.203V19.0362L333.703 18.17L333.203 17.304ZM337.747 14.68V13.68H337.479L337.247 13.814L337.747 14.68ZM347.411 14.68L347.911 13.8141L347.679 13.68H347.411V14.68ZM354.835 18.968H355.835V18.3908L355.335 18.1021L354.835 18.968ZM354.835 47V48H355.835V47H354.835ZM348.627 47H347.627V48H348.627V47ZM348.627 20.248H349.627V19.248H348.627V20.248ZM333.203 20.248V19.248H332.203V20.248H333.203ZM333.203 46H326.995V48H333.203V46ZM327.995 47V0.279999H325.995V47H327.995ZM326.995 1.28H333.203V-0.720001H326.995V1.28ZM332.203 0.279999V17.304H334.203V0.279999H332.203ZM333.703 18.17L338.247 15.546L337.247 13.814L332.703 16.438L333.703 18.17ZM337.747 15.68H347.411V13.68H337.747V15.68ZM346.911 15.5459L354.335 19.8339L355.335 18.1021L347.911 13.8141L346.911 15.5459ZM353.835 18.968V47H355.835V18.968H353.835ZM354.835 46H348.627V48H354.835V46ZM349.627 47V20.248H347.627V47H349.627ZM348.627 19.248H333.203V21.248H348.627V19.248ZM332.203 20.248V47H334.203V20.248H332.203ZM392.258 43.032L392.758 43.8979L393.258 43.6092V43.032H392.258ZM384.833 47.32V48.32H385.102L385.334 48.1859L384.833 47.32ZM372.482 47.32L371.981 48.1859L372.213 48.32H372.482V47.32ZM365.057 43.032H364.057V43.6092L364.557 43.8979L365.057 43.032ZM365.057 18.968L364.557 18.1021L364.057 18.3908V18.968H365.057ZM372.482 14.68V13.68H372.213L371.981 13.8141L372.482 14.68ZM384.833 14.68L385.334 13.8141L385.102 13.68H384.833V14.68ZM392.258 18.968H393.258V18.3908L392.758 18.1021L392.258 18.968ZM371.266 20.248V19.248H370.266V20.248H371.266ZM371.266 41.752H370.266V42.752H371.266V41.752ZM386.049 41.752V42.752H387.049V41.752H386.049ZM386.049 20.248H387.049V19.248H386.049V20.248ZM391.757 42.1661L384.333 46.4541L385.334 48.1859L392.758 43.8979L391.757 42.1661ZM384.833 46.32H372.482V48.32H384.833V46.32ZM372.982 46.4541L365.558 42.1661L364.557 43.8979L371.981 48.1859L372.982 46.4541ZM366.057 43.032V18.968H364.057V43.032H366.057ZM365.558 19.8339L372.982 15.5459L371.981 13.8141L364.557 18.1021L365.558 19.8339ZM372.482 15.68H384.833V13.68H372.482V15.68ZM384.333 15.5459L391.757 19.8339L392.758 18.1021L385.334 13.8141L384.333 15.5459ZM391.258 18.968V43.032H393.258V18.968H391.258ZM370.266 20.248V41.752H372.266V20.248H370.266ZM371.266 42.752H386.049V40.752H371.266V42.752ZM387.049 41.752V20.248H385.049V41.752H387.049ZM386.049 19.248H371.266V21.248H386.049V19.248ZM429.695 43.032L430.195 43.8979L430.695 43.6092V43.032H429.695ZM422.271 47.32V48.32H422.539L422.771 48.1859L422.271 47.32ZM409.919 47.32L409.419 48.1859L409.651 48.32H409.919V47.32ZM402.495 43.032H401.495V43.6092L401.995 43.8979L402.495 43.032ZM402.495 18.968L401.995 18.1021L401.495 18.3908V18.968H402.495ZM409.919 14.68V13.68H409.651L409.419 13.8141L409.919 14.68ZM422.271 14.68L422.771 13.8141L422.539 13.68H422.271V14.68ZM429.695 18.968H430.695V18.3908L430.195 18.1021L429.695 18.968ZM408.703 20.248V19.248H407.703V20.248H408.703ZM408.703 41.752H407.703V42.752H408.703V41.752ZM423.487 41.752V42.752H424.487V41.752H423.487ZM423.487 20.248H424.487V19.248H423.487V20.248ZM429.195 42.1661L421.771 46.4541L422.771 48.1859L430.195 43.8979L429.195 42.1661ZM422.271 46.32H409.919V48.32H422.271V46.32ZM410.419 46.4541L402.995 42.1661L401.995 43.8979L409.419 48.1859L410.419 46.4541ZM403.495 43.032V18.968H401.495V43.032H403.495ZM402.995 19.8339L410.419 15.5459L409.419 13.8141L401.995 18.1021L402.995 19.8339ZM409.919 15.68H422.271V13.68H409.919V15.68ZM421.771 15.5459L429.195 19.8339L430.195 18.1021L422.771 13.8141L421.771 15.5459ZM428.695 18.968V43.032H430.695V18.968H428.695ZM407.703 20.248V41.752H409.703V20.248H407.703ZM408.703 42.752H423.487V40.752H408.703V42.752ZM424.487 41.752V20.248H422.487V41.752H424.487ZM423.487 19.248H408.703V21.248H423.487V19.248ZM447.357 47L446.856 47.8659L447.088 48H447.357V47ZM439.932 42.712H438.932V43.2892L439.432 43.5779L439.932 42.712ZM439.932 0.279999V-0.720001H438.932V0.279999H439.932ZM446.141 0.279999H447.141V-0.720001H446.141V0.279999ZM446.141 41.432H445.141V42.432H446.141V41.432ZM453.82 41.432H454.82V40.432H453.82V41.432ZM453.82 47V48H454.82V47H453.82ZM447.857 46.1341L440.433 41.8461L439.432 43.5779L446.856 47.8659L447.857 46.1341ZM440.932 42.712V0.279999H438.932V42.712H440.932ZM439.932 1.28H446.141V-0.720001H439.932V1.28ZM445.141 0.279999V41.432H447.141V0.279999H445.141ZM446.141 42.432H453.82V40.432H446.141V42.432ZM452.82 41.432V47H454.82V41.432H452.82ZM453.82 46H447.357V48H453.82V46ZM502.79 35.8V34.8H501.79V35.8H502.79ZM509.19 35.8H510.19V34.8H509.19V35.8ZM509.19 43.032L509.69 43.8979L510.19 43.6092V43.032H509.19ZM501.766 47.32V48.32H502.034L502.266 48.1859L501.766 47.32ZM484.934 47.32L484.434 48.1859L484.666 48.32H484.934V47.32ZM477.51 43.032H476.51V43.6092L477.01 43.8979L477.51 43.032ZM477.51 6.168L477.01 5.30206L476.51 5.59077V6.168H477.51ZM484.934 1.88V0.879997H484.666L484.434 1.01406L484.934 1.88ZM501.766 1.88L502.266 1.01406L502.034 0.879997H501.766V1.88ZM509.19 6.168H510.19V5.59077L509.69 5.30206L509.19 6.168ZM509.19 13.4V14.4H510.19V13.4H509.19ZM502.79 13.4H501.79V14.4H502.79V13.4ZM502.79 7.64H503.79V6.64H502.79V7.64ZM483.91 7.64V6.64H482.91V7.64H483.91ZM483.91 41.56H482.91V42.56H483.91V41.56ZM502.79 41.56V42.56H503.79V41.56H502.79ZM502.79 36.8H509.19V34.8H502.79V36.8ZM508.19 35.8V43.032H510.19V35.8H508.19ZM508.69 42.1661L501.266 46.4541L502.266 48.1859L509.69 43.8979L508.69 42.1661ZM501.766 46.32H484.934V48.32H501.766V46.32ZM485.434 46.4541L478.01 42.1661L477.01 43.8979L484.434 48.1859L485.434 46.4541ZM478.51 43.032V6.168H476.51V43.032H478.51ZM478.01 7.03394L485.434 2.74593L484.434 1.01406L477.01 5.30206L478.01 7.03394ZM484.934 2.88H501.766V0.879997H484.934V2.88ZM501.266 2.74593L508.69 7.03394L509.69 5.30206L502.266 1.01406L501.266 2.74593ZM508.19 6.168V13.4H510.19V6.168H508.19ZM509.19 12.4H502.79V14.4H509.19V12.4ZM503.79 13.4V7.64H501.79V13.4H503.79ZM502.79 6.64H483.91V8.64H502.79V6.64ZM482.91 7.64V41.56H484.91V7.64H482.91ZM483.91 42.56H502.79V40.56H483.91V42.56ZM503.79 41.56V35.8H501.79V41.56H503.79ZM546.633 43.032L547.133 43.8979L547.633 43.6092V43.032H546.633ZM539.208 47.32V48.32H539.477L539.709 48.1859L539.208 47.32ZM526.857 47.32L526.356 48.1859L526.588 48.32H526.857V47.32ZM519.432 43.032H518.432V43.6092L518.932 43.8979L519.432 43.032ZM519.432 18.968L518.932 18.1021L518.432 18.3908V18.968H519.432ZM526.857 14.68V13.68H526.588L526.356 13.8141L526.857 14.68ZM539.208 14.68L539.709 13.8141L539.477 13.68H539.208V14.68ZM546.633 18.968H547.633V18.3908L547.133 18.1021L546.633 18.968ZM525.641 20.248V19.248H524.641V20.248H525.641ZM525.641 41.752H524.641V42.752H525.641V41.752ZM540.424 41.752V42.752H541.424V41.752H540.424ZM540.424 20.248H541.424V19.248H540.424V20.248ZM546.132 42.1661L538.708 46.4541L539.709 48.1859L547.133 43.8979L546.132 42.1661ZM539.208 46.32H526.857V48.32H539.208V46.32ZM527.357 46.4541L519.933 42.1661L518.932 43.8979L526.356 48.1859L527.357 46.4541ZM520.432 43.032V18.968H518.432V43.032H520.432ZM519.933 19.8339L527.357 15.5459L526.356 13.8141L518.932 18.1021L519.933 19.8339ZM526.857 15.68H539.208V13.68H526.857V15.68ZM538.708 15.5459L546.132 19.8339L547.133 18.1021L539.709 13.8141L538.708 15.5459ZM545.633 18.968V43.032H547.633V18.968H545.633ZM524.641 20.248V41.752H526.641V20.248H524.641ZM525.641 42.752H540.424V40.752H525.641V42.752ZM541.424 41.752V20.248H539.424V41.752H541.424ZM540.424 19.248H525.641V21.248H540.424V19.248ZM564.294 14.68V13.68H564.026L563.794 13.8141L564.294 14.68ZM573.958 14.68L574.458 13.814L574.226 13.68H573.958V14.68ZM578.502 17.304L578.002 18.17L579.502 19.0362V17.304H578.502ZM578.502 0.279999V-0.720001H577.502V0.279999H578.502ZM584.71 0.279999H585.71V-0.720001H584.71V0.279999ZM584.71 47.32V48.32H585.71V47.32H584.71ZM580.038 47.32L579.175 47.8252L579.465 48.32H580.038V47.32ZM578.502 44.696L579.365 44.1908L578.863 43.3329L578.002 43.83L578.502 44.696ZM573.958 47.32V48.32H574.226L574.458 48.186L573.958 47.32ZM564.294 47.32L563.794 48.1859L564.026 48.32H564.294V47.32ZM556.87 43.032H555.87V43.6092L556.37 43.8979L556.87 43.032ZM556.87 18.968L556.37 18.1021L555.87 18.3908V18.968H556.87ZM578.502 41.752V42.752H579.502V41.752H578.502ZM578.502 20.248H579.502V19.248H578.502V20.248ZM563.078 20.248V19.248H562.078V20.248H563.078ZM563.078 41.752H562.078V42.752H563.078V41.752ZM564.294 15.68H573.958V13.68H564.294V15.68ZM573.458 15.546L578.002 18.17L579.002 16.438L574.458 13.814L573.458 15.546ZM579.502 17.304V0.279999H577.502V17.304H579.502ZM578.502 1.28H584.71V-0.720001H578.502V1.28ZM583.71 0.279999V47.32H585.71V0.279999H583.71ZM584.71 46.32H580.038V48.32H584.71V46.32ZM580.901 46.8148L579.365 44.1908L577.639 45.2012L579.175 47.8252L580.901 46.8148ZM578.002 43.83L573.458 46.454L574.458 48.186L579.002 45.562L578.002 43.83ZM573.958 46.32H564.294V48.32H573.958V46.32ZM564.794 46.4541L557.37 42.1661L556.37 43.8979L563.794 48.1859L564.794 46.4541ZM557.87 43.032V18.968H555.87V43.032H557.87ZM557.37 19.8339L564.794 15.5459L563.794 13.8141L556.37 18.1021L557.37 19.8339ZM579.502 41.752V20.248H577.502V41.752H579.502ZM578.502 19.248H563.078V21.248H578.502V19.248ZM562.078 20.248V41.752H564.078V20.248H562.078ZM563.078 42.752H578.502V40.752H563.078V42.752ZM601.141 15H602.141V14H601.141V15ZM601.141 47V48H602.141V47H601.141ZM594.932 47H593.932V48H594.932V47ZM594.932 15V14H593.932V15H594.932ZM594.612 7.128H593.612V8.128H594.612V7.128ZM594.612 0.279999V-0.720001H593.612V0.279999H594.612ZM601.461 0.279999H602.461V-0.720001H601.461V0.279999ZM601.461 7.128V8.128H602.461V7.128H601.461ZM600.141 15V47H602.141V15H600.141ZM601.141 46H594.932V48H601.141V46ZM595.932 47V15H593.932V47H595.932ZM594.932 16H601.141V14H594.932V16ZM595.612 7.128V0.279999H593.612V7.128H595.612ZM594.612 1.28H601.461V-0.720001H594.612V1.28ZM600.461 0.279999V7.128H602.461V0.279999H600.461ZM601.461 6.128H594.612V8.128H601.461V6.128ZM638.57 18.968H639.57V18.3908L639.07 18.1021L638.57 18.968ZM638.57 47V48H639.57V47H638.57ZM632.362 47H631.362V48H632.362V47ZM632.362 20.248H633.362V19.248H632.362V20.248ZM617.578 20.248V19.248H616.578V20.248H617.578ZM617.578 47V48H618.578V47H617.578ZM611.37 47H610.37V48H611.37V47ZM611.37 14.68V13.68H610.37V14.68H611.37ZM616.042 14.68L616.905 14.1748L616.615 13.68H616.042V14.68ZM617.578 17.304L616.715 17.8092L617.217 18.6671L618.078 18.17L617.578 17.304ZM622.122 14.68V13.68H621.854L621.622 13.814L622.122 14.68ZM631.146 14.68L631.646 13.8141L631.414 13.68H631.146V14.68ZM637.57 18.968V47H639.57V18.968H637.57ZM638.57 46H632.362V48H638.57V46ZM633.362 47V20.248H631.362V47H633.362ZM632.362 19.248H617.578V21.248H632.362V19.248ZM616.578 20.248V47H618.578V20.248H616.578ZM617.578 46H611.37V48H617.578V46ZM612.37 47V14.68H610.37V47H612.37ZM611.37 15.68H616.042V13.68H611.37V15.68ZM615.179 15.1852L616.715 17.8092L618.441 16.7988L616.905 14.1748L615.179 15.1852ZM618.078 18.17L622.622 15.546L621.622 13.814L617.078 16.438L618.078 18.17ZM622.122 15.68H631.146V13.68H622.122V15.68ZM630.646 15.5459L638.07 19.8339L639.07 18.1021L631.646 13.8141L630.646 15.5459ZM655.016 47L654.516 47.866L654.748 48H655.016V47ZM648.807 43.416H647.807V43.9934L648.307 44.282L648.807 43.416ZM648.807 37.656L648.307 36.79L647.807 37.0787V37.656H648.807ZM653.352 35.032L653.852 35.898L655.351 35.032L653.852 34.166L653.352 35.032ZM648.807 32.408H647.807V32.9853L648.307 33.274L648.807 32.408ZM648.807 19.288L648.307 18.4221L647.807 18.7108V19.288H648.807ZM656.232 15V14H655.963L655.731 14.1341L656.232 15ZM676.648 15H677.648V14H676.648V15ZM676.648 17.176L677.151 18.0401L677.648 17.7508V17.176H676.648ZM670.823 20.568L670.32 19.7039L668.846 20.5623L670.315 21.4292L670.823 20.568ZM674.727 22.872H675.727V22.301L675.236 22.0108L674.727 22.872ZM674.727 31.704L675.228 32.5699L675.727 32.2812V31.704H674.727ZM667.304 35.992V36.992H667.572L667.804 36.8579L667.304 35.992ZM655.016 35.992V34.992H654.016V35.992H655.016ZM655.016 41.432H654.016V42.432H655.016V41.432ZM669.224 41.432L669.724 40.5661L669.492 40.432H669.224V41.432ZM676.648 45.72H677.648V45.1428L677.148 44.8541L676.648 45.72ZM676.648 55.832L677.148 56.6979L677.648 56.4092V55.832H676.648ZM669.224 60.12V61.12H669.492L669.724 60.9859L669.224 60.12ZM654.951 60.12L654.451 60.9859L654.683 61.12H654.951V60.12ZM647.528 55.832H646.528V56.4092L647.027 56.6979L647.528 55.832ZM647.528 51.864L647.028 50.998L646.528 51.2866V51.864H647.528ZM653.735 48.28H654.735V46.548L653.236 47.414L653.735 48.28ZM653.735 54.68H652.735V55.68H653.735V54.68ZM670.44 54.68V55.68H671.44V54.68H670.44ZM670.44 47H671.44V46H670.44V47ZM655.016 20.44V19.44H654.016V20.44H655.016ZM655.016 30.552H654.016V31.552H655.016V30.552ZM668.52 30.552V31.552H669.52V30.552H668.52ZM668.52 20.44H669.52V19.44H668.52V20.44ZM655.516 46.134L649.307 42.55L648.307 44.282L654.516 47.866L655.516 46.134ZM649.807 43.416V37.656H647.807V43.416H649.807ZM649.308 38.522L653.852 35.898L652.851 34.166L648.307 36.79L649.308 38.522ZM653.852 34.166L649.308 31.542L648.307 33.274L652.851 35.898L653.852 34.166ZM649.807 32.408V19.288H647.807V32.408H649.807ZM649.308 20.1539L656.732 15.8659L655.731 14.1341L648.307 18.4221L649.308 20.1539ZM656.232 16H676.648V14H656.232V16ZM675.648 15V17.176H677.648V15H675.648ZM676.144 16.3119L670.32 19.7039L671.327 21.4321L677.151 18.0401L676.144 16.3119ZM670.315 21.4292L674.219 23.7332L675.236 22.0108L671.332 19.7068L670.315 21.4292ZM673.727 22.872V31.704H675.727V22.872H673.727ZM674.227 30.8381L666.803 35.1261L667.804 36.8579L675.228 32.5699L674.227 30.8381ZM667.304 34.992H655.016V36.992H667.304V34.992ZM654.016 35.992V41.432H656.016V35.992H654.016ZM655.016 42.432H669.224V40.432H655.016V42.432ZM668.723 42.2979L676.147 46.5859L677.148 44.8541L669.724 40.5661L668.723 42.2979ZM675.648 45.72V55.832H677.648V45.72H675.648ZM676.147 54.9661L668.723 59.2541L669.724 60.9859L677.148 56.6979L676.147 54.9661ZM669.224 59.12H654.951V61.12H669.224V59.12ZM655.452 59.2541L648.028 54.9661L647.027 56.6979L654.451 60.9859L655.452 59.2541ZM648.528 55.832V51.864H646.528V55.832H648.528ZM648.027 52.73L654.235 49.146L653.236 47.414L647.028 50.998L648.027 52.73ZM652.735 48.28V54.68H654.735V48.28H652.735ZM653.735 55.68H670.44V53.68H653.735V55.68ZM671.44 54.68V47H669.44V54.68H671.44ZM670.44 46H655.016V48H670.44V46ZM654.016 20.44V30.552H656.016V20.44H654.016ZM655.016 31.552H668.52V29.552H655.016V31.552ZM669.52 30.552V20.44H667.52V30.552H669.52ZM668.52 19.44H655.016V21.44H668.52V19.44ZM728.165 35.8V34.8H727.165V35.8H728.165ZM734.565 35.8H735.565V34.8H734.565V35.8ZM734.565 43.032L735.065 43.8979L735.565 43.6092V43.032H734.565ZM727.141 47.32V48.32H727.409L727.641 48.1859L727.141 47.32ZM710.309 47.32L709.809 48.1859L710.041 48.32H710.309V47.32ZM702.885 43.032H701.885V43.6092L702.385 43.8979L702.885 43.032ZM702.885 6.168L702.385 5.30206L701.885 5.59077V6.168H702.885ZM710.309 1.88V0.879997H710.041L709.809 1.01406L710.309 1.88ZM727.141 1.88L727.641 1.01406L727.409 0.879997H727.141V1.88ZM734.565 6.168H735.565V5.59077L735.065 5.30206L734.565 6.168ZM734.565 13.4V14.4H735.565V13.4H734.565ZM728.165 13.4H727.165V14.4H728.165V13.4ZM728.165 7.64H729.165V6.64H728.165V7.64ZM709.285 7.64V6.64H708.285V7.64H709.285ZM709.285 41.56H708.285V42.56H709.285V41.56ZM728.165 41.56V42.56H729.165V41.56H728.165ZM728.165 36.8H734.565V34.8H728.165V36.8ZM733.565 35.8V43.032H735.565V35.8H733.565ZM734.065 42.1661L726.641 46.4541L727.641 48.1859L735.065 43.8979L734.065 42.1661ZM727.141 46.32H710.309V48.32H727.141V46.32ZM710.809 46.4541L703.385 42.1661L702.385 43.8979L709.809 48.1859L710.809 46.4541ZM703.885 43.032V6.168H701.885V43.032H703.885ZM703.385 7.03394L710.809 2.74593L709.809 1.01406L702.385 5.30206L703.385 7.03394ZM710.309 2.88H727.141V0.879997H710.309V2.88ZM726.641 2.74593L734.065 7.03394L735.065 5.30206L727.641 1.01406L726.641 2.74593ZM733.565 6.168V13.4H735.565V6.168H733.565ZM734.565 12.4H728.165V14.4H734.565V12.4ZM729.165 13.4V7.64H727.165V13.4H729.165ZM728.165 6.64H709.285V8.64H728.165V6.64ZM708.285 7.64V41.56H710.285V7.64H708.285ZM709.285 42.56H728.165V40.56H709.285V42.56ZM729.165 41.56V35.8H727.165V41.56H729.165ZM752.232 47L751.731 47.8659L751.963 48H752.232V47ZM744.807 42.712H743.807V43.2892L744.307 43.5779L744.807 42.712ZM744.807 0.279999V-0.720001H743.807V0.279999H744.807ZM751.016 0.279999H752.016V-0.720001H751.016V0.279999ZM751.016 41.432H750.016V42.432H751.016V41.432ZM758.695 41.432H759.695V40.432H758.695V41.432ZM758.695 47V48H759.695V47H758.695ZM752.732 46.1341L745.308 41.8461L744.307 43.5779L751.731 47.8659L752.732 46.1341ZM745.807 42.712V0.279999H743.807V42.712H745.807ZM744.807 1.28H751.016V-0.720001H744.807V1.28ZM750.016 0.279999V41.432H752.016V0.279999H750.016ZM751.016 42.432H758.695V40.432H751.016V42.432ZM757.695 41.432V47H759.695V41.432H757.695ZM758.695 46H752.232V48H758.695V46ZM765.12 43.032H764.12V43.6092L764.62 43.8979L765.12 43.032ZM765.12 15V14H764.12V15H765.12ZM771.328 15H772.328V14H771.328V15ZM771.328 41.752H770.328V42.752H771.328V41.752ZM786.112 41.752V42.752H787.112V41.752H786.112ZM786.112 15V14H785.112V15H786.112ZM792.32 15H793.32V14H792.32V15ZM792.32 47.32V48.32H793.32V47.32H792.32ZM787.648 47.32L786.785 47.8252L787.075 48.32H787.648V47.32ZM786.112 44.696L786.975 44.1908L786.473 43.3329L785.612 43.83L786.112 44.696ZM781.568 47.32V48.32H781.836L782.068 48.186L781.568 47.32ZM772.544 47.32L772.044 48.1859L772.276 48.32H772.544V47.32ZM766.12 43.032V15H764.12V43.032H766.12ZM765.12 16H771.328V14H765.12V16ZM770.328 15V41.752H772.328V15H770.328ZM771.328 42.752H786.112V40.752H771.328V42.752ZM787.112 41.752V15H785.112V41.752H787.112ZM786.112 16H792.32V14H786.112V16ZM791.32 15V47.32H793.32V15H791.32ZM792.32 46.32H787.648V48.32H792.32V46.32ZM788.511 46.8148L786.975 44.1908L785.249 45.2012L786.785 47.8252L788.511 46.8148ZM785.612 43.83L781.068 46.454L782.068 48.186L786.612 45.562L785.612 43.83ZM781.568 46.32H772.544V48.32H781.568V46.32ZM773.044 46.4541L765.62 42.1661L764.62 43.8979L772.044 48.1859L773.044 46.4541ZM813.31 14.68V13.68H813.042L812.809 13.814L813.31 14.68ZM822.974 14.68L823.474 13.8141L823.242 13.68H822.974V14.68ZM830.398 18.968H831.398V18.3908L830.898 18.1021L830.398 18.968ZM830.398 43.032L830.898 43.8979L831.398 43.6092V43.032H830.398ZM822.974 47.32V48.32H823.242L823.474 48.1859L822.974 47.32ZM813.31 47.32L812.809 48.186L813.042 48.32H813.31V47.32ZM808.766 44.696L809.266 43.83L808.766 43.5412L808.265 43.83L808.766 44.696ZM804.221 47.32V48.32H804.49L804.722 48.186L804.221 47.32ZM802.557 47.32H801.557V48.32H802.557V47.32ZM802.557 0.279999V-0.720001H801.557V0.279999H802.557ZM808.766 0.279999H809.766V-0.720001H808.766V0.279999ZM808.766 17.304H807.766V19.0362L809.266 18.17L808.766 17.304ZM808.766 20.248V19.248H807.766V20.248H808.766ZM808.766 41.752H807.766V42.752H808.766V41.752ZM824.19 41.752V42.752H825.19V41.752H824.19ZM824.19 20.248H825.19V19.248H824.19V20.248ZM813.31 15.68H822.974V13.68H813.31V15.68ZM822.473 15.5459L829.897 19.8339L830.898 18.1021L823.474 13.8141L822.473 15.5459ZM829.398 18.968V43.032H831.398V18.968H829.398ZM829.897 42.1661L822.473 46.4541L823.474 48.1859L830.898 43.8979L829.897 42.1661ZM822.974 46.32H813.31V48.32H822.974V46.32ZM813.81 46.454L809.266 43.83L808.265 45.562L812.809 48.186L813.81 46.454ZM808.265 43.83L803.721 46.454L804.722 48.186L809.266 45.562L808.265 43.83ZM804.221 46.32H802.557V48.32H804.221V46.32ZM803.557 47.32V0.279999H801.557V47.32H803.557ZM802.557 1.28H808.766V-0.720001H802.557V1.28ZM807.766 0.279999V17.304H809.766V0.279999H807.766ZM809.266 18.17L813.81 15.546L812.809 13.814L808.265 16.438L809.266 18.17ZM807.766 20.248V41.752H809.766V20.248H807.766ZM808.766 42.752H824.19V40.752H808.766V42.752ZM825.19 41.752V20.248H823.19V41.752H825.19ZM824.19 19.248H808.766V21.248H824.19V19.248Z" fill="black" mask="url(#path-1-outside-1_1_25)"/>
</g>
<defs>
<filter id="filter0_d_1_25" x="0.760002" y="0.280029" width="833.638" height="67.8401" filterUnits="userSpaceOnUse" color-interpolation-filters="sRGB">
<feFlood flood-opacity="0" result="BackgroundImageFix"/>
<feColorMatrix in="SourceAlpha" type="matrix" values="0 0 0 0 0 0 0 0 0 0 0 0 0 0 0 0 0 0 127 0" result="hardAlpha"/>
<feOffset dy="4"/>
<feGaussianBlur stdDeviation="2"/>
<feComposite in2="hardAlpha" operator="out"/>
<feColorMatrix type="matrix" values="0 0 0 0 0 0 0 0 0 0 0 0 0 0 0 0 0 0 0.25 0"/>
<feBlend mode="normal" in2="BackgroundImageFix" result="effect1_dropShadow_1_25"/>
<feBlend mode="normal" in="SourceGraphic" in2="effect1_dropShadow_1_25" result="shape"/>
</filter>
</defs>
</svg>
